<svg xmlns="http://www.w3.org/2000/svg" viewBox="0 0 128 128"><linearGradient id="a" x1="63" x2="84.9" y1="60" y2="125.1" gradientTransform="matrix(-1 0 0 1 129 0)" gradientUnits="userSpaceOnUse"><stop offset=".3" stop-color="#ffca28"/><stop offset="1" stop-color="#ffb300"/></linearGradient><linearGradient id="b" x1="56.6" x2="62.9" y1="70.2" y2="84" gradientTransform="matrix(-1 0 0 1 129 0)" gradientUnits="userSpaceOnUse"><stop offset=".2" stop-color="#ffb300"/><stop offset="1" stop-color="#ffb300" stop-opacity="0"/></linearGradient><path fill="url(#a)" d="M18 61c12 0 23 9 29 9s15-3 9-14l-4-5-9-8S16 61 9 51c-5-6 0-11 5-13 9-4 14-7 22-13 4-4 12-3 15 0l3 1v7l2-9c1-4 7-12 17-6 17 9 38 20 44 33 6 12 7 30 1 43-5 9-14 18-22 20-15 6-41 2-51-12-8-10-6-18-28-25 0 0-8-3-9-7-1-7 5-9 10-9z"/><path fill="url(#b)" d="M65 56c0 5 2 9 5 11s8 3 12 1c0 5 3 9 7 11-7 4-14 9-20 16-1-11-8-21-18-25 3 0 5-2 6-4l1-8c1-1 7 0 7-2z"/><g style="fill:none;stroke:#eda600;stroke-linecap:round;stroke-linejoin:round;stroke-miterlimit:10;stroke-width:3"><path d="M99 34c-3-2-19-5-22-6-8-1-12 3-12 9l1 24c1 7 9 12 15 4"/><path d="m103 43-14 1c-6 0-10 4-10 10l3 20c1 5 13 6 19 1"/><path d="M56 56c6 11-3 14-9 14s-17-9-29-9c-5 0-11 2-10 9 1 4 9 7 9 7 22 7 20 15 28 25 14 17 36 18 51 12 8-2 17-11 22-20 6-13 5-31-1-43-6-13-27-24-44-33-10-6-16 2-17 6l-4 23c-1 9 8 12 13 10"/></g><path fill="#eda600" d="M101 67c-2-4-9-2-9-2l2-5c1-2 3-2 4-1l8 6c1 1 2 2 1 3l-3 12-2 2c-20-3-29 15-29 15s1-11 13-18c4-3 5-2 6-2 3 0 6 0 8-2 1-1 3-5 1-8zm-64 2 8 3c3 0 9 1 15 8 3 2 5 7 6 10 0-4-2-16-14-20"/><path d="m54 26-3-1c-3-3-11-4-15 0-8 6-13 9-22 13-5 2-10 7-5 13 7 10 34-8 34-8l9 8" style="fill:none;stroke:#eda600;stroke-linecap:round;stroke-linejoin:round;stroke-miterlimit:10;stroke-width:3"/><path fill="#eda600" d="m39 44 5-7 1 1c1 2 0 5-1 6"/></svg>
